# AST/ASF file generated using VICON BodyLanguage
# -----------------------------------------------
:version 1.10
:name VICON
:units
  mass 1.0
  length 0.45
  angle deg
:documentation
   .ast/.asf automatically generated from VICON data using
   VICON BodyBuilder and BodyLanguage model FoxedUp or BRILLIANT.MOD
:root
   order TX TY TZ RX RY RZ
   axis XYZ
   position 0 0 0  
   orientation 0 0 0 
:bonedata
  begin
     id 1 
     name lhipjoint
     direction 0.822369 -0.411937 0.392449 
     length 3.8167 
     axis 0 0 0  XYZ
  end
  begin
     id 2 
     name lfemur
     direction 0.34202 -0.939693 0  
     length 6.16791  
     axis 0 0 20  XYZ
    dof rx ry rz
    limits (-160.0 20.0)
           (-70.0 70.0)
           (-60.0 70.0)
  end
  begin
     id 3 
     name ltibia
     direction 0.34202 -0.939693 0   
     length 7.07101   
     axis 0 0 20   XYZ
    dof rx
    limits (-10.0 170.0)
  end
  begin
     id 4 
     name lfoot
     direction 0.028254 -0.0776273 0.996582   
     length 1.66799   
     axis -90 7.62852e-016 20   XYZ
    dof rx rz
    limits (-45.0 90.0)
           (-70.0 20.0)
  end
  begin
     id 5 
     name ltoes
     direction 1.53483e-011 -4.21688e-011 1   
     length 0.851674   
     axis -90 7.62852e-016 20   XYZ
    dof rx
    limits (-90.0 20.0)
  end
  begin
     id 6 
     name rhipjoint
     direction -0.822466 -0.411836 0.392353   
     length 3.81764  
     axis 0 0 0  XYZ 
  end
  begin
     id 7 
     name rfemur
     direction -0.34202 -0.939693 0   
     length 6.28636   
     axis 0 0 -20   XYZ
    dof rx ry rz
    limits (-160.0 20.0)
           (-70.0 70.0)
           (-70.0 60.0)
  end
  begin
     id 8 
     name rtibia
     direction -0.34202 -0.939693 0   
     length 6.85621   
     axis 0 0 -20   XYZ
    dof rx
    limits (-10.0 170.0)
 end
 begin
     id 9 
     name rfoot
     direction -0.0553036 -0.151945 0.98684   
     length 1.57293  
     axis -90 -7.62852e-016 -20   XYZ
    dof rx rz
    limits (-45.0 90.0)
           (-20.0 70.0)
  end
  begin
     id 10 
     name rtoes
     direction -1.53592e-011 -4.21964e-011 1   
     length 0.802812   
     axis -90 -7.62852e-016 -20   XYZ
    dof rx
    limits (-90.0 20.0)
  end
  begin
     id 11 
     name lowerback
     direction 0.00654913 0.996475 -0.0836396   
     length 1.97212   
     axis 0 0 0   XYZ
    dof rx ry rz
    limits (-20.0 45.0)
           (-30.0 30.0)
           (-30.0 30.0)
  end
  begin
     id 12 
     name upperback
     direction 0.0111875 0.994527 0.103877   
     length 1.89704   
     axis 0 0 0   XYZ
    dof rx ry rz
    limits (-20.0 45.0)
           (-30.0 30.0)
           (-30.0 30.0)
  end
  begin
     id 13 
     name thorax
     direction 0.00473652 0.989004 0.147814   
     length 1.94516   
     axis 0 0 0   XYZ
    dof rx ry rz
    limits (-20.0 45.0)
           (-30.0 30.0)
           (-30.0 30.0)
  end
  begin
     id 14 
     name lowerneck
     direction -0.00925808 0.999011 0.0434791   
     length 1.81771   
     axis 0 0 0   XYZ
    dof rx ry rz
    limits (-20.0 45.0)
           (-30.0 30.0)
           (-30.0 30.0)
  end
  begin
     id 15 
     name upperneck
     direction 0.00451595 0.964412 -0.264365   
     length 1.80434   
     axis 0 0 0   XYZ
    dof rx ry rz
    limits (-20.0 45.0)
           (-30.0 30.0)
           (-30.0 30.0)
  end
  begin
     id 16
     name head
     direction -0.00110849 0.995756 -0.0920241  
     length 1.84006  
     axis 0 0 0   XYZ
    dof rx ry rz
    limits (-20.0 45.0)
           (-30.0 30.0)
           (-30.0 30.0)
  end
  begin
     id 17 
     name lclavicle
     direction 0.921253 0.385213 0.0538957  
     length 3.67415  
     axis 0 0 0   XYZ
    dof ry rz
    limits (-20.0 10.0)
           (0.0 20.0)
  end
  begin
     id 18 
     name lhumerus
     direction 1 -4.48961e-011 6.73441e-028   
     length 4.32712   
     axis 180 -30 -90   XYZ
    dof rx ry rz
    limits (-60.0 90.0)
           (-90.0 90.0)
           (-90.0 90.0)
  end
  begin
     id 19
     name lradius
     direction 1 -4.48985e-011 -9.53507e-028   
     length 3.28587   
     axis 180 -30 -90   XYZ
    dof rx
    limits (-10.0 170.0)
  end
  begin
     id 20
     name lwrist
     direction 1 -4.48951e-011 -4.67472e-027   
     length 1.64293   
     axis 1.65735e-015 90 90   XYZ
    dof ry
    limits (-180.0 0.0)
 end
  begin
     id 21 
     name lhand
     direction 1 -4.48946e-011 -9.34945e-027   
     length 0.433158   
     axis 5.96574e-015 90 90   XYZ
    dof rx rz
    limits (-90.0 90.0)
           (-45.0 45.0)
  end
  begin
     id 22 
     name lfingers
     direction 1 -4.48882e-011 -1.86989e-026   
     length 0.349224   
     axis 1.19315e-014 90 90   XYZ
    dof rx
    limits (0.0 90.0)
  end
  begin
     id 23
     name lthumb
     direction 0.707107 -6.3493e-011 0.707107   
     length 0.501417   
     axis -90 45 2.85299e-015   XYZ
    dof rx rz
    limits (-45.0 45.0)
           (-45.0 45.0)
  end
  begin
     id 24 
     name rclavicle
     direction -0.884378 0.46502 -0.0403866   
     length 3.50218  
     axis 0 0 0   XYZ 
    dof ry rz
    limits (-10.0 20.0)
           (-20.0 0.0)
  end
  begin
     id 25 
     name rhumerus
     direction -1 -4.48964e-011 1.58188e-027  
     length 4.29104   
     axis 180 30 90   XYZ
    dof rx ry rz
    limits (-90.0 60.0)
           (-90.0 90.0)
           (-90.0 90.0)
  end
  begin
     id 26 
     name rradius
     direction -1 -4.48978e-011 -1.9722e-027   
     length 3.2272   
     axis 180 30 90   XYZ
    dof rx
    limits (-10.0 170.0)
  end
  begin
     id 27 
     name rwrist
     direction -1 -4.48969e-011 -4.67472e-027   
     length 1.6136   
     axis 1.65735e-015 -90 -90   XYZ
    dof ry
    limits (-180.0 0.0)
  end
  begin
     id 28
     name rhand
     direction -1 -4.48846e-011 -9.34945e-027   
     length 0.543623   
     axis 5.96574e-015 -90 -90   XYZ
    dof rx rz
    limits (-90.0 90.0)
           (-45.0 45.0)
  end
  begin
     id 29
     name rfingers
     direction -1 -4.49074e-011 -1.86989e-026   
     length 0.438283   
     axis 1.19315e-014 -90 -90   XYZ
    dof rx
    limits (0.0 90.0)
  end
  begin
     id 30
     name rthumb
     direction -0.707107 -6.34834e-011 0.707107   
     length 0.629289   
     axis -90 -45 -2.85299e-015   XYZ
    dof rx rz
    limits (-45.0 45.0)
           (-45.0 45.0)
  end
:hierarchy
  begin
    root lhipjoint rhipjoint lowerback
    lhipjoint lfemur
    lfemur ltibia
    ltibia lfoot
    lfoot ltoes
    rhipjoint rfemur
    rfemur rtibia
    rtibia rfoot
    rfoot rtoes
    lowerback upperback
    upperback thorax
    thorax lowerneck lclavicle rclavicle
    lowerneck upperneck
    upperneck head
    lclavicle lhumerus
    lhumerus lradius
    lradius lwrist
    lwrist lhand lthumb
    lhand lfingers
    rclavicle rhumerus
    rhumerus rradius
    rradius rwrist
    rwrist rhand rthumb
    rhand rfingers
  end

#!OML:ASF H:\GeneralSubjects\Female5\Project 1\Capture day 1\Session 1\Female5.ASF
:FULLY-SPECIFIED
:DEGREES
83
root -16.4178 15.8288 -4.4375 -37.8891 88.02 -45.7998
lowerback 6.2035 0.792276 0.192453
upperback -9.83042 1.57162 1.38789
thorax -14.3183 0.943458 1.10749
lowerneck -18.5604 -0.810432 -0.397644
upperneck 35.6753 2.71474 -6.6493
head 15.9072 0.540505 -2.17107
rclavicle 7.20594e-015 3.97569e-016
rhumerus -21.9979 11.9148 -56.0802
rradius 108.316
rwrist -1.58204
rhand -35.8609 -18.6332
rfingers 7.12502
rthumb -8.97557 -48.4223
lclavicle 7.20594e-015 3.97569e-016
lhumerus -49.9254 1.6367 81.994
lradius 37.9406
lwrist -7.80296
lhand -17.4419 38.4722
lfingers 7.12502
lthumb 8.80894 68.2684
rfemur -2.72636 -2.53405 22.3534
rtibia 46.8513
rfoot -0.00152635 -22.5383
rtoes -12.0141
lfemur -15.1826 -9.93508 -31.8664
ltibia 13.1402
lfoot -18.457 17.0166
ltoes -65.8655
84
root -16.1536 15.8443 -4.49033 -35.1258 88.5247 -43.1438
lowerback 6.23244 0.71461 -0.305698
upperback -9.85903 1.39868 1.36783
thorax -14.3795 0.914514 1.3958
lowerneck -18.2982 -0.719965 -0.24381
upperneck 35.5779 2.8889 -6.8918
head 15.813 0.611262 -2.26407
rclavicle 4.22417e-015 -7.95139e-016
rhumerus -19.9963 10.1729 -54.672
rradius 110.327
rwrist -0.0715943
rhand -38.5087 -18.1124
rfingers 7.12502
rthumb -11.5299 -47.7753
lclavicle 4.22417e-015 -7.95139e-016
lhumerus -48.7576 0.960644 82.2488
lradius 38.3861
lwrist -7.79151
lhand -18.4177 37.1493
lfingers 7.12502
lthumb 7.86719 66.9829
rfemur -6.23213 -3.22567 21.9806
rtibia 49.1325
rfoot -5.4433 -22.751
rtoes -9.56477
lfemur -13.5313 -10.2358 -32.8458
ltibia 12.1258
lfoot -19.1656 16.7674
ltoes -65.7862
85
root -15.8837 15.8546 -4.53953 -38.4307 88.928 -46.4422
lowerback 6.27399 0.63336 -0.573709
upperback -9.78903 1.24676 1.37466
thorax -14.3234 0.869228 1.58184
lowerneck -18.0805 -0.715908 -0.514018
upperneck 34.9507 3.03762 -7.2247
head 15.4722 0.592597 -2.30934
rclavicle -1.49089e-015 1.15295e-014
rhumerus -17.973 8.25305 -53.498
rradius 112.307
rwrist 1.0969
rhand -40.9411 -17.5378
rfingers 7.12502
rthumb -13.8748 -47.055
lclavicle -1.49089e-015 1.15295e-014
lhumerus -47.2992 0.622798 82.3193
lradius 38.5047
lwrist -8.09437
lhand -18.3164 38.441
lfingers 7.12502
lthumb 7.96492 68.2709
rfemur -9.65 -3.80669 21.9665
rtibia 50.9716
rfoot -10.7449 -22.2794
rtoes -9.21324
lfemur -11.6389 -10.3704 -33.6348
ltibia 10.9303
lfoot -20.5739 15.6588
ltoes -64.8731
86
root -15.6089 15.8652 -4.58881 -56.4393 89.2336 -64.3922
lowerback 6.30052 0.533991 -0.64705
upperback -9.69554 1.09642 1.39462
thorax -14.224 0.803722 1.67315
lowerneck -18.1304 -0.67112 -0.681291
upperneck 34.7947 3.16703 -7.27166
head 15.4173 0.616769 -2.27147
rclavicle -5.61567e-015 -2.18663e-014
rhumerus -16.1075 6.26246 -52.5247
rradius 114.41
rwrist 1.78654
rhand -43.0488 -16.8644
rfingers 7.12502
rthumb -15.9053 -46.2312
lclavicle -5.61567e-015 -2.18663e-014
lhumerus -45.7384 0.487243 82.3287
lradius 38.5446
lwrist -8.51838
lhand -18.4839 39.706
lfingers 7.12502
lthumb 7.80332 69.542
rfemur -12.8542 -4.18169 22.2375
rtibia 51.9578
rfoot -14.5683 -21.6362
rtoes -9.64062
lfemur -9.67988 -10.7857 -34.2277
ltibia 9.67242
lfoot -21.7119 14.7018
ltoes -63.4461
87
root -15.3386 15.8765 -4.63779 -103.301 89.3388 -111.105
lowerback 6.4289 0.398415 -0.662483
upperback -9.59269 0.901452 1.4024
thorax -14.1747 0.709425 1.72618
lowerneck -17.8308 -0.633574 -0.463635
upperneck 34.3349 3.23739 -7.68579
head 15.1448 0.627324 -2.45476
rclavicle -2.5345e-015 -8.34896e-015
rhumerus -14.431 4.32704 -51.6684
rradius 116.432
rwrist 2.55131
rhand -45.3054 -16.3178
rfingers 7.12502
rthumb -18.0775 -45.4977
lclavicle -2.5345e-015 -8.34896e-015
lhumerus -44.2917 0.369548 82.29
lradius 38.662
lwrist -8.95675
lhand -19.1234 40.4304
lfingers 7.12502
lthumb 7.18603 70.2884
rfemur -15.6836 -4.44257 22.5865
rtibia 52.011
rfoot -17.1535 -20.7626
rtoes -8.28148
lfemur -7.75649 -11.5156 -34.827
ltibia 8.56766
lfoot -21.6258 14.487
ltoes -63.5358
88
root -15.0725 15.8851 -4.68289 -144.715 88.935 -152.314
lowerback 6.71378 0.220741 -0.729918
upperback -9.51973 0.63719 1.36877
thorax -14.2579 0.586006 1.77595
lowerneck -17.464 -0.57832 -0.256584
upperneck 33.9375 3.25196 -7.86061
head 14.8787 0.647732 -2.54452
rclavicle 1.73937e-015 6.75868e-015
rhumerus -12.9674 2.52975 -51.0596
rradius 118.142
rwrist 4.25072
rhand -47.8765 -16.1335
rfingers 7.12502
rthumb -20.5497 -45.0659
lclavicle 1.73937e-015 6.75868e-015
lhumerus -43.0579 0.221951 82.1637
lradius 38.8567
lwrist -9.39725
lhand -20.0995 40.3582
lfingers 7.12502
lthumb 6.24375 70.2462
rfemur -18.2953 -4.61269 22.9272
rtibia 51.3963
rfoot -19.0063 -19.749
rtoes -8.20753
lfemur -5.92277 -11.8221 -35.5085
ltibia 7.86811
lfoot -21.356 15.8726
ltoes -65.1564
89
root -14.8103 15.8883 -4.72622 -158.805 88.3377 -166.354
lowerback 6.87281 0.0551139 -0.82305
upperback -9.47253 0.387352 1.32448
thorax -14.2923 0.472693 1.82686
lowerneck -17.1275 -0.513528 0.00841559
upperneck 33.4008 3.25725 -8.08797
head 14.5604 0.661967 -2.66317
rclavicle -3.77691e-015 6.75868e-015
rhumerus -11.494 0.697908 -50.555
rradius 119.788
rwrist 5.78248
rhand -50.1635 -16.1331
rfingers 7.12502
rthumb -22.746 -44.8122
lclavicle -3.77691e-015 6.75868e-015
lhumerus -41.8816 0.0401425 82.1157
lradius 39.1504
lwrist -9.65473
lhand -20.7178 40.392
lfingers 7.12502
lthumb 5.64686 70.2967
rfemur -21.0816 -4.48325 23.3192
rtibia 50.3117
rfoot -19.8483 -19.2655
rtoes -9.83475
lfemur -4.39781 -11.6727 -36.12
ltibia 7.39636
lfoot -19.9308 17.4931
ltoes -67.9126
90
root -14.5553 15.8889 -4.76767 -163.779 87.6371 -171.408
lowerback 6.93452 -0.112067 -0.917613
upperback -9.41034 0.142605 1.33521
thorax -14.247 0.365408 1.93856
lowerneck -16.8621 -0.46801 0.627169
upperneck 32.7814 3.22698 -8.65919
head 14.2357 0.656697 -2.98924
rclavicle -7.10655e-015 -1.86858e-014
rhumerus -9.88147 -1.28714 -50.001
rradius 121.487
rwrist 6.29577
rhand -51.6859 -15.527
rfingers 7.12502
rthumb -24.2064 -44.0193
lclavicle -7.10655e-015 -1.86858e-014
lhumerus -40.6992 -0.317735 82.2836
lradius 39.5604
lwrist -9.59941
lhand -21.1883 41.7245
lfingers 7.12502
lthumb 5.19251 71.6409
rfemur -23.9312 -4.21079 23.7936
rtibia 48.7384
rfoot -20.2247 -19.3353
rtoes -13.0737
lfemur -2.9449 -12.9028 -36.5131
ltibia 6.56262
lfoot -22.9321 14.551
ltoes -64.2988
91
root -14.302 15.8866 -4.80357 -167.344 86.7685 -175.053
lowerback 7.17908 -0.324006 -1.12636
upperback -9.43207 -0.172248 1.37682
thorax -14.4155 0.244193 2.16529
lowerneck -16.8959 -0.490532 0.761796
upperneck 32.5422 3.17295 -8.83552
head 14.1377 0.623988 -3.08631
rclavicle 6.21202e-015 -1.55052e-014
rhumerus -8.51619 -3.17271 -49.4327
rradius 123.164
rwrist 6.43787
rhand -52.7657 -14.673
rfingers 7.12502
rthumb -25.2413 -43.0234
lclavicle 6.21202e-015 -1.55052e-014
lhumerus -39.7294 -0.669751 82.4876
lradius 39.9447
lwrist -9.51773
lhand -20.9331 40.1906
lfingers 7.12502
lthumb 5.43898 70.1008
rfemur -26.4162 -3.8632 24.1612
rtibia 46.5129
rfoot -21.3258 -19.1507
rtoes -16.3701
lfemur -1.52766 -13.8029 -36.9787
ltibia 5.85306
lfoot -25.1012 10.5618
ltoes -59.0457
92
root -14.0395 15.8797 -4.83464 -170.699 85.8586 -178.447
lowerback 7.46752 -0.536903 -1.46152
upperback -9.4935 -0.512324 1.37603
thorax -14.6559 0.124866 2.42477
lowerneck -16.7236 -0.520375 0.877758
upperneck 32.0915 3.03619 -8.89494
head 13.8907 0.572928 -3.13443
rclavicle -1.2921e-015 1.59028e-015
rhumerus -7.47545 -4.94141 -48.8316
rradius 124.711
rwrist 7.03562
rhand -54.232 -14.5895
rfingers 7.12502
rthumb -26.6454 -42.7343
lclavicle -1.2921e-015 1.59028e-015
lhumerus -38.9353 -0.804553 82.659
lradius 40.2076
lwrist -9.25624
lhand -22.1044 39.7047
lfingers 7.12502
lthumb 4.30799 69.6409
rfemur -28.3226 -3.23396 24.2401
rtibia 43.4828
rfoot -23.0599 -18.8565
rtoes -15.3508
lfemur 0.0456152 -14.6298 -37.6157
ltibia 5.18234
lfoot -24.3379 13.1428
ltoes -62.6662
